{
	"asset":{
		"copyright":"Solstice",
		"generator":"Khronos glTF Blender I/O v4.3.47",
		"version":"2.0"
	},
	"extensionsUsed":[
		"EXT_texture_webp"
	],
	"extensionsRequired":[
		"EXT_texture_webp"
	],
	"scene":0,
	"scenes":[
		{
			"name":"Scene",
			"nodes":[
				0,
				1,
				2
			]
		}
	],
	"nodes":[
		{
			"mesh":0,
			"name":"Gen_1",
			"scale":[
				1,
				1.0537779331207275,
				1
			],
			"translation":[
				-0.031219959259033203,
				0.0022701621055603027,
				0.25238561630249023
			]
		},
		{
			"mesh":1,
			"name":"Gen_2",
			"translation":[
				-0.006708085536956787,
				0.029016194865107536,
				3.0004143714904785
			]
		},
		{
			"mesh":2,
			"name":"Gen_3",
			"translation":[
				0.04537159204483032,
				0.10634371638298035,
				6.024073600769043
			]
		}
	],
	"materials":[
		{
			"doubleSided":true,
			"name":"Gen_MAT",
			"pbrMetallicRoughness":{
				"baseColorTexture":{
					"index":0
				},
				"metallicFactor":0,
				"roughnessFactor":0.5
			}
		},
		{
			"doubleSided":true,
			"emissiveFactor":[
				0.7000002264976501,
				0.7000002264976501,
				0.7000002264976501
			],
			"emissiveTexture":{
				"index":1
			},
			"name":"EMMIT_L",
			"pbrMetallicRoughness":{
				"baseColorTexture":{
					"index":2
				},
				"metallicFactor":0
			}
		},
		{
			"doubleSided":true,
			"name":"Zobnik",
			"pbrMetallicRoughness":{
				"baseColorTexture":{
					"index":3
				},
				"metallicFactor":0,
				"roughnessFactor":0.5
			}
		},
		{
			"doubleSided":true,
			"emissiveFactor":[
				0.30000001192092896,
				0.30000001192092896,
				0.30000001192092896
			],
			"emissiveTexture":{
				"index":4
			},
			"name":"EMMIT_DARK",
			"pbrMetallicRoughness":{
				"baseColorTexture":{
					"index":5
				},
				"metallicFactor":0.009999999776482582
			}
		}
	],
	"meshes":[
		{
			"name":"Plane.003",
			"primitives":[
				{
					"attributes":{
						"POSITION":0,
						"NORMAL":1,
						"TEXCOORD_0":2
					},
					"indices":3,
					"material":0
				},
				{
					"attributes":{
						"POSITION":4,
						"NORMAL":5,
						"TEXCOORD_0":6
					},
					"indices":7,
					"material":1
				},
				{
					"attributes":{
						"POSITION":8,
						"NORMAL":9,
						"TEXCOORD_0":10
					},
					"indices":11,
					"material":2
				}
			]
		},
		{
			"name":"Plane.004",
			"primitives":[
				{
					"attributes":{
						"POSITION":12,
						"NORMAL":13,
						"TEXCOORD_0":14
					},
					"indices":15,
					"material":0
				},
				{
					"attributes":{
						"POSITION":16,
						"NORMAL":17,
						"TEXCOORD_0":18
					},
					"indices":19,
					"material":1
				},
				{
					"attributes":{
						"POSITION":20,
						"NORMAL":21,
						"TEXCOORD_0":22
					},
					"indices":23,
					"material":2
				}
			]
		},
		{
			"name":"Cube.010",
			"primitives":[
				{
					"attributes":{
						"POSITION":24,
						"NORMAL":25,
						"TEXCOORD_0":26
					},
					"indices":27,
					"material":0
				},
				{
					"attributes":{
						"POSITION":28,
						"NORMAL":29,
						"TEXCOORD_0":30
					},
					"indices":31,
					"material":1
				},
				{
					"attributes":{
						"POSITION":32,
						"NORMAL":33,
						"TEXCOORD_0":34
					},
					"indices":35,
					"material":3
				},
				{
					"attributes":{
						"POSITION":36,
						"NORMAL":37,
						"TEXCOORD_0":38
					},
					"indices":39,
					"material":2
				}
			]
		}
	],
	"textures":[
		{
			"extensions":{
				"EXT_texture_webp":{
					"source":0
				}
			},
			"sampler":0
		},
		{
			"extensions":{
				"EXT_texture_webp":{
					"source":0
				}
			},
			"sampler":0
		},
		{
			"extensions":{
				"EXT_texture_webp":{
					"source":0
				}
			},
			"sampler":0
		},
		{
			"extensions":{
				"EXT_texture_webp":{
					"source":0
				}
			},
			"sampler":0
		},
		{
			"extensions":{
				"EXT_texture_webp":{
					"source":0
				}
			},
			"sampler":0
		},
		{
			"extensions":{
				"EXT_texture_webp":{
					"source":0
				}
			},
			"sampler":0
		}
	],
	"images":[
		{
			"mimeType":"image/webp",
			"name":"1k_Diffuse_gen",
			"uri":"Generator_Diffuse_1k.webp"
		}
	],
	"accessors":[
		{
			"bufferView":0,
			"componentType":5126,
			"count":416,
			"max":[
				0.4000000059604645,
				0.5652958750724792,
				0.4000000059604645
			],
			"min":[
				-0.4000000059604645,
				0,
				-0.4000000059604645
			],
			"type":"VEC3"
		},
		{
			"bufferView":1,
			"componentType":5126,
			"count":416,
			"type":"VEC3"
		},
		{
			"bufferView":2,
			"componentType":5126,
			"count":416,
			"type":"VEC2"
		},
		{
			"bufferView":3,
			"componentType":5123,
			"count":888,
			"type":"SCALAR"
		},
		{
			"bufferView":4,
			"componentType":5126,
			"count":8,
			"max":[
				0.15114450454711914,
				0.44128143787384033,
				0.2678377330303192
			],
			"min":[
				-0.15114355087280273,
				0.24398133158683777,
				-0.2678423821926117
			],
			"type":"VEC3"
		},
		{
			"bufferView":5,
			"componentType":5126,
			"count":8,
			"type":"VEC3"
		},
		{
			"bufferView":6,
			"componentType":5126,
			"count":8,
			"type":"VEC2"
		},
		{
			"bufferView":7,
			"componentType":5123,
			"count":12,
			"type":"SCALAR"
		},
		{
			"bufferView":8,
			"componentType":5126,
			"count":850,
			"max":[
				0.04095727205276489,
				0.7349410653114319,
				0.21081240475177765
			],
			"min":[
				-0.038537800312042236,
				0.33791834115982056,
				-0.20756132900714874
			],
			"type":"VEC3"
		},
		{
			"bufferView":9,
			"componentType":5126,
			"count":850,
			"type":"VEC3"
		},
		{
			"bufferView":10,
			"componentType":5126,
			"count":850,
			"type":"VEC2"
		},
		{
			"bufferView":11,
			"componentType":5123,
			"count":1920,
			"type":"SCALAR"
		},
		{
			"bufferView":12,
			"componentType":5126,
			"count":384,
			"max":[
				0.4001282751560211,
				0.8000966310501099,
				0.4000718295574188
			],
			"min":[
				-0.40139466524124146,
				0,
				-0.4000718295574188
			],
			"type":"VEC3"
		},
		{
			"bufferView":13,
			"componentType":5126,
			"count":384,
			"type":"VEC3"
		},
		{
			"bufferView":14,
			"componentType":5126,
			"count":384,
			"type":"VEC2"
		},
		{
			"bufferView":15,
			"componentType":5123,
			"count":864,
			"type":"SCALAR"
		},
		{
			"bufferView":16,
			"componentType":5126,
			"count":56,
			"max":[
				0.36888623237609863,
				0.7234631776809692,
				0.24952422082424164
			],
			"min":[
				-0.3699682950973511,
				0.04697994515299797,
				-0.24952514469623566
			],
			"type":"VEC3"
		},
		{
			"bufferView":17,
			"componentType":5126,
			"count":56,
			"type":"VEC3"
		},
		{
			"bufferView":18,
			"componentType":5126,
			"count":56,
			"type":"VEC2"
		},
		{
			"bufferView":19,
			"componentType":5123,
			"count":84,
			"type":"SCALAR"
		},
		{
			"bufferView":20,
			"componentType":5126,
			"count":850,
			"max":[
				0.3366483151912689,
				0.8633474111557007,
				0.0598665289580822
			],
			"min":[
				-0.38677558302879333,
				0.13992354273796082,
				-0.06278382241725922
			],
			"type":"VEC3"
		},
		{
			"bufferView":21,
			"componentType":5126,
			"count":850,
			"type":"VEC3"
		},
		{
			"bufferView":22,
			"componentType":5126,
			"count":850,
			"type":"VEC2"
		},
		{
			"bufferView":23,
			"componentType":5123,
			"count":1920,
			"type":"SCALAR"
		},
		{
			"bufferView":24,
			"componentType":5126,
			"count":940,
			"max":[
				0.4000000059604645,
				0.7804501056671143,
				0.9001967310905457
			],
			"min":[
				-0.4000000059604645,
				-0.10000000149011612,
				-0.9000000357627869
			],
			"type":"VEC3"
		},
		{
			"bufferView":25,
			"componentType":5126,
			"count":940,
			"type":"VEC3"
		},
		{
			"bufferView":26,
			"componentType":5126,
			"count":940,
			"type":"VEC2"
		},
		{
			"bufferView":27,
			"componentType":5123,
			"count":2292,
			"type":"SCALAR"
		},
		{
			"bufferView":28,
			"componentType":5126,
			"count":112,
			"max":[
				0.34533095359802246,
				0.6294698715209961,
				0.8500574231147766
			],
			"min":[
				-0.34918034076690674,
				-0.06111882999539375,
				-0.8503416180610657
			],
			"type":"VEC3"
		},
		{
			"bufferView":29,
			"componentType":5126,
			"count":112,
			"type":"VEC3"
		},
		{
			"bufferView":30,
			"componentType":5126,
			"count":112,
			"type":"VEC2"
		},
		{
			"bufferView":31,
			"componentType":5123,
			"count":168,
			"type":"SCALAR"
		},
		{
			"bufferView":32,
			"componentType":5126,
			"count":16,
			"max":[
				0.30621299147605896,
				0.6294699907302856,
				-0.15497687458992004
			],
			"min":[
				-0.30621328949928284,
				0.14097724854946136,
				-0.7050002217292786
			],
			"type":"VEC3"
		},
		{
			"bufferView":33,
			"componentType":5126,
			"count":16,
			"type":"VEC3"
		},
		{
			"bufferView":34,
			"componentType":5126,
			"count":16,
			"type":"VEC2"
		},
		{
			"bufferView":35,
			"componentType":5123,
			"count":24,
			"type":"SCALAR"
		},
		{
			"bufferView":36,
			"componentType":5126,
			"count":2550,
			"max":[
				0.3888130784034729,
				0.8553838133811951,
				0.678282618522644
			],
			"min":[
				-0.4066314101219177,
				0.05993938446044922,
				-0.6793011426925659
			],
			"type":"VEC3"
		},
		{
			"bufferView":37,
			"componentType":5126,
			"count":2550,
			"type":"VEC3"
		},
		{
			"bufferView":38,
			"componentType":5126,
			"count":2550,
			"type":"VEC2"
		},
		{
			"bufferView":39,
			"componentType":5123,
			"count":5760,
			"type":"SCALAR"
		}
	],
	"bufferViews":[
		{
			"buffer":0,
			"byteLength":4992,
			"byteOffset":0,
			"target":34962
		},
		{
			"buffer":0,
			"byteLength":4992,
			"byteOffset":4992,
			"target":34962
		},
		{
			"buffer":0,
			"byteLength":3328,
			"byteOffset":9984,
			"target":34962
		},
		{
			"buffer":0,
			"byteLength":1776,
			"byteOffset":13312,
			"target":34963
		},
		{
			"buffer":0,
			"byteLength":96,
			"byteOffset":15088,
			"target":34962
		},
		{
			"buffer":0,
			"byteLength":96,
			"byteOffset":15184,
			"target":34962
		},
		{
			"buffer":0,
			"byteLength":64,
			"byteOffset":15280,
			"target":34962
		},
		{
			"buffer":0,
			"byteLength":24,
			"byteOffset":15344,
			"target":34963
		},
		{
			"buffer":0,
			"byteLength":10200,
			"byteOffset":15368,
			"target":34962
		},
		{
			"buffer":0,
			"byteLength":10200,
			"byteOffset":25568,
			"target":34962
		},
		{
			"buffer":0,
			"byteLength":6800,
			"byteOffset":35768,
			"target":34962
		},
		{
			"buffer":0,
			"byteLength":3840,
			"byteOffset":42568,
			"target":34963
		},
		{
			"buffer":0,
			"byteLength":4608,
			"byteOffset":46408,
			"target":34962
		},
		{
			"buffer":0,
			"byteLength":4608,
			"byteOffset":51016,
			"target":34962
		},
		{
			"buffer":0,
			"byteLength":3072,
			"byteOffset":55624,
			"target":34962
		},
		{
			"buffer":0,
			"byteLength":1728,
			"byteOffset":58696,
			"target":34963
		},
		{
			"buffer":0,
			"byteLength":672,
			"byteOffset":60424,
			"target":34962
		},
		{
			"buffer":0,
			"byteLength":672,
			"byteOffset":61096,
			"target":34962
		},
		{
			"buffer":0,
			"byteLength":448,
			"byteOffset":61768,
			"target":34962
		},
		{
			"buffer":0,
			"byteLength":168,
			"byteOffset":62216,
			"target":34963
		},
		{
			"buffer":0,
			"byteLength":10200,
			"byteOffset":62384,
			"target":34962
		},
		{
			"buffer":0,
			"byteLength":10200,
			"byteOffset":72584,
			"target":34962
		},
		{
			"buffer":0,
			"byteLength":6800,
			"byteOffset":82784,
			"target":34962
		},
		{
			"buffer":0,
			"byteLength":3840,
			"byteOffset":89584,
			"target":34963
		},
		{
			"buffer":0,
			"byteLength":11280,
			"byteOffset":93424,
			"target":34962
		},
		{
			"buffer":0,
			"byteLength":11280,
			"byteOffset":104704,
			"target":34962
		},
		{
			"buffer":0,
			"byteLength":7520,
			"byteOffset":115984,
			"target":34962
		},
		{
			"buffer":0,
			"byteLength":4584,
			"byteOffset":123504,
			"target":34963
		},
		{
			"buffer":0,
			"byteLength":1344,
			"byteOffset":128088,
			"target":34962
		},
		{
			"buffer":0,
			"byteLength":1344,
			"byteOffset":129432,
			"target":34962
		},
		{
			"buffer":0,
			"byteLength":896,
			"byteOffset":130776,
			"target":34962
		},
		{
			"buffer":0,
			"byteLength":336,
			"byteOffset":131672,
			"target":34963
		},
		{
			"buffer":0,
			"byteLength":192,
			"byteOffset":132008,
			"target":34962
		},
		{
			"buffer":0,
			"byteLength":192,
			"byteOffset":132200,
			"target":34962
		},
		{
			"buffer":0,
			"byteLength":128,
			"byteOffset":132392,
			"target":34962
		},
		{
			"buffer":0,
			"byteLength":48,
			"byteOffset":132520,
			"target":34963
		},
		{
			"buffer":0,
			"byteLength":30600,
			"byteOffset":132568,
			"target":34962
		},
		{
			"buffer":0,
			"byteLength":30600,
			"byteOffset":163168,
			"target":34962
		},
		{
			"buffer":0,
			"byteLength":20400,
			"byteOffset":193768,
			"target":34962
		},
		{
			"buffer":0,
			"byteLength":11520,
			"byteOffset":214168,
			"target":34963
		}
	],
	"samplers":[
		{
			"magFilter":9729,
			"minFilter":9987
		}
	],
	"buffers":[
		{
			"byteLength":225688,
			"uri":"Generators_pack_V2_UVFix.bin"
		}
	]
}
